<svg xmlns="http://www.w3.org/2000/svg" version="1.0" width="390" height="194" viewBox="0 0 390.000000 194.000000" preserveAspectRatio="xMidYMid meet">
  <g transform="translate(0.000000,194.000000) scale(0.100000,-0.100000)" fill="#000000" stroke="none">
    <path d="M2440 1855 c-39 -40 -95 -59 -200 -70 -73 -8 -100 -25 -100 -65 0 -30 16 -50 41 -50 12 0 24 -18 38 -55 12 -31 21 -59 21 -63 0 -5 -13 -18 -29 -30 -24 -17 -31 -19 -40 -8 -6 7 -9 21 -5 30 6 16 -11 46 -26 46 -4 0 -18 -9 -31 -20 l-24 -20 22 -17 c12 -10 25 -29 28 -43 5 -22 -1 -31 -45 -64 -29 -22 -107 -92 -173 -157 -118 -114 -121 -118 -97 -127 23 -9 35 0 149 110 120 116 264 238 280 238 5 0 11 -10 15 -22 14 -52 7 -64 -64 -112 -38 -27 -114 -90 -167 -142 -87 -84 -96 -96 -80 -105 10 -6 20 -9 22 -7 209 195 304 273 318 259 4 -4 10 -24 14 -44 5 -32 3 -37 -14 -37 -37 0 -138 -59 -188 -110 -42 -43 -46 -50 -28 -50 12 0 39 16 60 35 21 20 65 49 97 65 74 38 177 42 241 10 22 -11 31 -18 21 -15 -106 30 -168 28 -251 -11 -28 -13 -66 -40 -85 -61 l-35 -37 35 27 c45 36 129 77 155 76 11 0 1 -6 -23 -14 -49 -15 -118 -59 -126 -81 -8 -21 2 -17 38 13 37 31 86 53 118 53 14 -1 1 -8 -30 -19 -49 -17 -102 -54 -102 -72 0 -4 23 8 50 26 48 32 124 53 152 42 7 -3 -1 -6 -17 -6 -47 -1 -94 -18 -132 -47 -45 -34 -36 -42 12 -10 20 14 53 28 72 32 43 8 112 -1 127 -16 8 -8 4 -9 -17 -1 -36 14 -70 14 -117 0 -44 -13 -98 -54 -88 -65 5 -4 16 0 26 9 26 23 87 47 119 46 20 0 13 -4 -23 -13 -51 -13 -103 -43 -104 -61 0 -5 4 -16 9 -23 6 -11 16 -8 47 13 51 35 104 30 148 -14 25 -26 31 -40 31 -75 0 -106 -120 -160 -193 -86 l-26 26 -17 -30 c-27 -51 -82 -88 -139 -94 -27 -2 -50 -8 -50 -13 0 -4 26 -35 58 -68 48 -51 54 -60 37 -63 -11 -2 -209 -1 -440 2 l-420 5 74 78 c66 69 73 80 59 93 -13 13 -24 5 -101 -75 -91 -95 -113 -111 -146 -111 -14 0 -21 -6 -21 -20 0 -20 5 -20 733 -18 643 3 732 5 732 18 0 10 -12 16 -32 18 -18 2 -33 5 -33 7 0 2 23 25 50 51 30 28 63 73 83 113 43 87 50 206 18 291 -12 30 -21 74 -21 97 0 53 -14 90 -48 127 -30 32 -136 86 -168 86 -36 0 -60 31 -84 113 -25 81 -44 103 -79 92 -15 -5 -22 3 -35 41 -9 26 -16 51 -16 54 0 4 35 10 78 13 132 10 231 57 286 136 45 64 8 89 -39 26 -37 -47 -114 -93 -188 -110 -69 -16 -203 -20 -212 -6 -8 15 5 19 91 30 43 6 97 16 119 22 43 12 119 81 113 101 -9 25 -34 18 -68 -17z m-83 -405 c26 -85 51 -116 101 -125 140 -25 227 -126 189 -217 -10 -23 -12 -39 -6 -45 12 -12 -27 -83 -44 -83 -6 0 -22 -12 -35 -27 l-23 -28 6 25 c4 14 8 36 9 50 5 38 26 78 46 83 10 2 23 22 30 43 13 38 13 38 -26 72 -52 46 -82 60 -167 81 l-72 17 -27 95 c-30 106 -34 143 -16 137 7 -3 23 -37 35 -78z m26 -237 c-7 -2 -21 -2 -30 0 -10 3 -4 5 12 5 17 0 24 -2 18 -5z m54 -129 c-3 -3 -12 -4 -19 -1 -8 3 -5 6 6 6 11 1 17 -2 13 -5z m248 -269 c-38 -121 -150 -209 -280 -220 -42 -4 -54 -2 -40 4 11 5 34 10 51 10 17 1 58 15 92 31 103 52 169 144 181 254 6 58 6 59 9 18 2 -24 -4 -68 -13 -97z m-18 75 c-17 -142 -117 -245 -257 -264 -25 -4 -58 -3 -75 2 -25 8 -19 10 36 10 146 0 269 108 286 253 3 27 8 49 11 49 3 0 2 -22 -1 -50z m-42 -45 c-31 -107 -119 -175 -235 -181 l-65 -3 55 8 c138 20 226 100 247 223 4 23 9 35 11 26 2 -10 -4 -43 -13 -73z m-43 -32 c-36 -69 -100 -114 -179 -128 -60 -10 -54 1 7 14 28 6 68 22 89 36 40 25 90 96 92 131 1 16 2 16 6 2 2 -9 -5 -34 -15 -55z m-84 -19 c-21 -19 -43 -34 -50 -34 -7 0 1 9 19 20 18 11 38 28 45 39 7 11 15 18 18 15 3 -3 -12 -21 -32 -40z m41 1 c-29 -43 -109 -85 -158 -84 -34 1 -33 2 10 9 25 4 60 15 76 24 33 16 83 70 83 88 0 6 3 8 6 5 4 -4 -4 -22 -17 -42z m-126 -42 c-13 -2 -33 -2 -45 0 -13 2 -3 4 22 4 25 0 35 -2 23 -4z m-90 -150 c-7 -2 -19 -2 -25 0 -7 3 -2 5 12 5 14 0 19 -2 13 -5z" />
    <path d="M1231 1761 c-27 -27 -27 -65 -1 -91 29 -29 63 -40 120 -40 46 0 49 -2 59 -32 58 -186 74 -248 72 -276 -2 -31 10 -88 29 -137 9 -23 9 -23 53 -7 l44 16 -18 64 c-10 36 -26 73 -34 82 -9 10 -36 84 -59 164 l-43 145 46 15 c25 8 62 16 81 18 27 2 36 8 38 24 4 31 -37 45 -163 55 -60 5 -131 11 -156 15 -39 5 -50 3 -68 -15z m198 -38 l55 -6 -45 -18 c-83 -33 -189 -18 -189 28 0 16 6 16 179 -4z" />
    <path d="M1651 1291 c-20 -13 -7 -39 21 -43 19 -2 23 -8 20 -35 -3 -29 -1 -33 22 -33 20 0 27 7 34 33 7 27 14 33 43 37 26 4 34 10 34 25 0 18 -8 20 -80 23 -44 1 -86 -2 -94 -7z" />
    <path d="M1600 1151 c-108 -22 -182 -112 -183 -221 -1 -155 140 -265 287 -223 59 17 82 12 51 -11 -11 -8 -16 -19 -12 -30 6 -14 20 -16 94 -14 80 3 88 5 88 23 0 16 -8 21 -42 23 -34 3 -47 9 -64 33 l-22 31 47 47 c50 51 54 62 30 81 -13 11 -22 6 -59 -36 l-45 -49 -25 30 c-14 17 -35 49 -47 73 -23 41 -48 59 -68 47 -13 -8 -13 -42 0 -50 23 -14 91 -117 86 -130 -7 -18 -66 -29 -111 -21 -43 8 -103 59 -121 103 -34 79 -5 168 69 217 35 23 50 27 94 23 69 -5 102 -29 215 -156 123 -137 156 -161 222 -161 91 0 150 59 148 147 -1 124 -128 183 -236 111 -55 -36 -62 -48 -46 -78 l12 -22 26 24 c73 67 117 75 163 29 40 -41 40 -91 0 -132 -55 -55 -110 -37 -201 66 -181 205 -245 247 -350 226z" />
    <path d="M2344 935 c-4 -9 0 -23 9 -32 21 -21 49 -9 45 19 -4 28 -45 38 -54 13z" />
    <path d="M83 415 c-41 -18 -66 -56 -66 -104 0 -49 26 -84 83 -111 84 -40 95 -48 98 -74 6 -47 -75 -58 -136 -19 -13 8 -25 13 -27 11 -1 -2 -10 -17 -19 -35 l-16 -31 43 -21 c79 -38 183 -23 221 31 21 30 20 107 0 137 -9 13 -50 39 -91 57 -69 31 -74 36 -71 62 3 26 6 27 53 26 28 -1 59 -4 71 -8 16 -6 23 -2 32 19 16 34 4 51 -47 65 -49 13 -90 12 -128 -5z" />
    <path d="M1822 415 c-58 -25 -77 -114 -37 -172 8 -12 44 -35 79 -52 70 -33 90 -55 75 -82 -15 -29 -63 -33 -114 -10 l-45 20 -15 -29 c-8 -16 -15 -32 -15 -35 0 -15 90 -45 136 -45 94 0 156 70 133 153 -12 43 -31 60 -110 100 -71 35 -83 57 -45 82 24 16 51 14 107 -9 10 -5 19 1 27 19 17 38 16 41 -28 59 -49 20 -104 20 -148 1z" />
    <path d="M3602 409 c-97 -48 -133 -194 -75 -301 35 -65 90 -98 162 -98 68 0 110 19 149 66 87 105 54 282 -62 335 -55 25 -121 24 -174 -2z m147 -74 c30 -15 61 -77 61 -118 -1 -34 -36 -104 -58 -116 -30 -16 -94 -13 -120 5 -32 22 -52 67 -52 114 0 103 84 160 169 115z" />
    <path d="M360 215 l0 -205 40 0 40 0 0 69 0 68 54 6 c30 3 68 13 86 22 79 41 78 176 -2 225 -27 16 -50 20 -125 20 l-93 0 0 -205z m180 115 c24 -24 25 -48 4 -78 -12 -17 -25 -22 -60 -22 l-44 0 0 60 0 60 40 0 c27 0 47 -7 60 -20z" />
    <path d="M710 215 l0 -205 45 0 45 0 0 205 0 205 -45 0 -45 0 0 -205z" />
    <path d="M872 218 l3 -203 37 -3 37 -3 3 141 3 142 90 -141 c85 -133 92 -141 123 -141 l32 0 0 205 0 205 -40 0 -40 0 0 -122 0 -123 -82 123 -81 122 -44 0 -43 0 2 -202z" />
    <path d="M2062 383 l3 -38 62 -3 63 -3 2 -162 3 -162 38 -3 37 -3 0 165 0 166 55 0 55 0 0 40 0 40 -161 0 -160 0 3 -37z" />
    <path d="M2470 263 c0 -177 9 -206 71 -239 48 -24 140 -16 175 17 46 42 54 76 54 234 l0 145 -40 0 -40 0 0 -143 c0 -167 -7 -187 -69 -187 -67 0 -75 19 -79 186 l-3 144 -35 0 -34 0 0 -157z" />
    <path d="M2890 214 l0 -207 94 6 c58 3 108 12 131 23 132 62 137 289 7 362 -33 18 -55 22 -136 22 l-96 0 0 -206z m184 124 c75 -34 87 -175 19 -228 -18 -14 -41 -20 -74 -20 l-49 0 0 130 0 130 40 0 c21 0 50 -5 64 -12z" />
    <path d="M3320 215 l0 -205 45 0 45 0 0 205 0 205 -45 0 -45 0 0 -205z" />
    <path d="M1264 311 c-63 -38 -70 -128 -13 -175 44 -38 100 -33 151 11 13 12 15 19 5 33 -10 18 -12 17 -40 -6 -37 -31 -73 -28 -100 7 -25 34 -13 78 26 97 36 18 74 -3 120 -65 61 -83 82 -98 139 -98 42 0 53 4 74 28 51 59 18 166 -56 182 -55 12 -142 -47 -112 -77 9 -9 17 -7 34 9 36 33 61 36 91 12 33 -25 36 -70 7 -99 -42 -42 -85 -20 -164 84 -32 42 -81 76 -111 76 -11 0 -34 -9 -51 -19z" />
  </g>
</svg>





